<?xml version="1.0" encoding="iso-8859-1"?>
<!-- Generator: Adobe Illustrator 24.0.2, SVG Export Plug-In . SVG Version: 6.00 Build 0)  -->
<svg version="1.1" id="&#x421;&#x43B;&#x43E;&#x439;_1"
	 xmlns="http://www.w3.org/2000/svg" xmlns:xlink="http://www.w3.org/1999/xlink" x="0px" y="0px" viewBox="0 0 48 48"
	 style="enable-background:new 0 0 48 48;" xml:space="preserve">
<path style="fill:#7E57C2;" d="M42,27.676c-3,3.441-6,6.882-9,10.324c-2.333,0-4.667,0-7,0c-2.333,2-4.667,4-7,6c-1,0-2,0-3,0
	c0-2,0-4,0-6c-3.333,0-6.667,0-10,0c0-7.431,0-14.863,0-22.294C7.455,12.804,8.909,9.902,10.364,7C20.909,7,31.455,7,42,7
	C42,13.892,42,20.784,42,27.676z"/>
<path style="fill:#FAFAFA;" d="M39,26.369c-1.667,1.877-3.333,3.754-5,5.631c-2.333,0-4.667,0-7,0c-2.333,2-4.667,4-7,6c0-2,0-4,0-6
	c-2.667-0.008-5.333-0.016-8-0.024c0-7.326,0-14.651,0-21.976c9,0,18,0,27,0C39,15.456,39,20.912,39,26.369z"/>
<rect x="21" y="16" style="fill:#7E57C2;" width="3" height="10"/>
<rect x="30" y="16" style="fill:#7E57C2;" width="3" height="10"/>
</svg>